<?xml version="1.0" encoding="UTF-8" standalone="no"?><!DOCTYPE svg PUBLIC "-//W3C//DTD SVG 1.1//EN" "http://www.w3.org/Graphics/SVG/1.1/DTD/svg11.dtd"><svg width="100%" height="100%" viewBox="0 0 382 224" version="1.1" xmlns="http://www.w3.org/2000/svg" xmlns:xlink="http://www.w3.org/1999/xlink" xml:space="preserve" xmlns:serif="http://www.serif.com/" style="fill-rule:evenodd;clip-rule:evenodd;stroke-linecap:round;stroke-linejoin:round;stroke-miterlimit:1.5;"><g><path d="M308.615,98.442l0,93.517c0,17.205 -13.968,31.172 -31.172,31.172l-172.968,0c-17.205,0 -31.172,-13.968 -31.172,-31.172l0,-93.517c0,-17.205 13.968,-31.172 31.172,-31.172l172.968,0c17.205,0 31.172,13.968 31.172,31.172Zm-9.423,5.463c0,-15.194 -12.336,-27.53 -27.53,-27.53l-161.407,0c-15.194,0 -27.53,12.336 -27.53,27.53l0,82.591c0,15.194 12.336,27.53 27.53,27.53l161.407,0c15.194,0 27.53,-12.336 27.53,-27.53l0,-82.591Z" style="fill:#fff;stroke:#fff;stroke-width:1px;"/><path d="M10.417,53.593l26.213,13.676" style="fill:none;stroke:#fff;stroke-width:20.83px;"/><path d="M59.816,10.417l13.486,26.312" style="fill:none;stroke:#fff;stroke-width:20.83px;"/><path d="M313.642,10.417l-13.486,26.312" style="fill:none;stroke:#fff;stroke-width:20.83px;"/><path d="M371.5,53.593l-26.213,13.676" style="fill:none;stroke:#fff;stroke-width:20.83px;"/></g></svg>